<?xml version="1.0" encoding="UTF-8"?>
<svg width="253" height="394.91" fill="none" version="1.1" viewBox="0 0 253 394.91" xmlns="http://www.w3.org/2000/svg" xmlns:cc="http://creativecommons.org/ns#" xmlns:dc="http://purl.org/dc/elements/1.1/" xmlns:rdf="http://www.w3.org/1999/02/22-rdf-syntax-ns#">
 <metadata>
  <rdf:RDF>
   <cc:Work rdf:about="">
    <dc:format>image/svg+xml</dc:format>
    <dc:type rdf:resource="http://purl.org/dc/dcmitype/StillImage"/>
    <dc:title/>
   </cc:Work>
  </rdf:RDF>
 </metadata>
 <g transform="scale(3.0854)" clip-path="url(#clip0)" fill="#804595">
  <path d="m0-0.0012718v12.453c4.8205 0 9.4436 1.9176 12.852 5.3311 3.4086 3.4134 5.3235 8.043 5.3235 12.87 0 4.8274-1.9149 9.457-5.3235 12.87-3.4087 3.4134-8.0318 5.3311-12.852 5.3311v12.445c4.0596 0.0634 8.0913-0.6825 11.86-2.1944 3.7689-1.5118 7.2-3.7594 10.093-6.6119 2.8933-2.8524 5.1909-6.2528 6.7593-10.003s2.3761-7.7755 2.3761-11.841-0.8077-8.091-2.3761-11.841c-1.5684-3.7502-3.866-7.1506-6.7593-10.003-2.8932-2.8525-6.3243-5.1-10.093-6.6119-3.769-1.5119-7.8007-2.2578-11.86-2.1943z"/>
  <path d="m10.363 79.966v-6.219h3.0417v15.32h-3.0417v-6.3011h-7.3211v6.3011h-3.0417v-15.32h3.0417v6.219z"/>
  <path d="m16.111 89.066v-15.32h11.31v2.7997h-8.2678v3.4193h7.4552v2.7996h-7.4552v3.5014h8.2678v2.7997z"/>
  <path d="m43.3 89.066v-15.32h11.317v2.7997h-8.2754v3.4193h7.4553v2.7996h-7.4553v3.5014h8.2754v2.7997z"/>
  <path d="m30.194 89.066v-15.32h3.0417v12.52h7.8429v2.7997z"/>
  <path d="m60.246 73.746 7.8653 10.527v-10.527h2.9821v15.32h-2.8777l-7.8504-10.527v10.527h-2.9821v-15.32z"/>
  <path d="m14.478 108.54v-15.32h11.31v2.7996h-8.2679v3.4193h7.4553v2.7999h-7.4553v3.501h8.2754v2.8z"/>
  <path d="m54.885 108.54v-15.32h11.31v2.7996h-8.2753v3.4193h7.4553v2.7999h-7.4553v3.501h8.2753v2.8z"/>
  <path d="m28.613 108.54v-15.32h3.0716v12.52h7.8429v2.8z"/>
  <path d="m41.749 108.54v-15.32h3.0417v12.52h7.8429v2.8z"/>
  <path d="m7.2166 99.996 6.7098 8.541h-3.6829l-5.0547-6.413-2.162 2.292v4.121h-3.0268v-15.32h3.0492v7.2488l6.8439-7.2488h3.7276z"/>
  <path d="m78.369 103.21c1.0044-0.354 1.8749-1.01 2.4917-1.879s0.9496-1.9078 0.9526-2.974c-4e-3 -1.363-0.5464-2.6691-1.5089-3.6329-0.9624-0.9638-2.2666-1.507-3.6278-1.5109h-7.6565v15.32h3.0492v-5.032h3.1163l3.3623 5.032h3.4592zm-1.9384-2.509h-4.3613v-4.6882h4.3464c0.3074 0 0.6118 0.0606 0.8958 0.1785 0.2841 0.1178 0.5421 0.2904 0.7595 0.5081s0.3898 0.4761 0.5074 0.7605c0.1177 0.2845 0.1783 0.5893 0.1783 0.8971 0 0.3079-0.0606 0.6127-0.1783 0.8971-0.1176 0.2845-0.29 0.5429-0.5074 0.7609-0.2174 0.217-0.4754 0.39-0.7595 0.508-0.284 0.118-0.5884 0.178-0.8958 0.178z"/>
  <path d="m1.2898 127.99h-1.2898v-15.305h1.2898z"/>
  <path d="m7.1944 112.69 10.273 13.266v-13.266h1.2599v15.305h-1.1555l-10.266-13.26v13.26h-1.2674v-15.305z"/>
  <path d="m33.772 113.9h-5.3603v14.088h-1.2898v-14.088h-5.3603v-1.217h12.01z"/>
  <path d="m36.806 127.99v-15.305h1.2823v14.08h8.8717v1.225z"/>
 </g>
 <defs>
  <clipPath id="clip0">
   <rect width="82" height="128" fill="#fff"/>
  </clipPath>
 </defs>
</svg>
